# xmcd
#
# Track frame offsets:
#	150
#	36307
#	60078
#	77238
#	109919
#	134376
#	157015
#	172922
#	184865
#	233250
#
# Disc length: 3392 seconds
#
# Revision: 0
# Processed by: cddbd v1.5.2PL0 Copyright (c) Steve Scherf et al.
# Submitted via: EZCDAudioConverter 3.1.0.1
#
DISCID=760d3e0a
DTITLE=Denge Roje 1 - Denge Roje
DYEAR=2007
DGENRE=Kurdish
TTITLE0=Brader - Eraba Mın
TTITLE1=Aydın - Heyran Heyran
TTITLE2=Aram Tigran - Rıhe Mın
TTITLE3=Kısmet Yıldız - Lawıko
TTITLE4=Hesen Şerif - Xabure
TTITLE5=Baran - Melul Can
TTITLE6=Kadir İpek - Çiya Bılın de
TTITLE7=Beyto Can - Bıra Neminım
TTITLE8=Ezo - Dewrane
TTITLE9=Cevad Mevani - Dewreşe Evdi
EXTD=
EXTT0=
EXTT1=
EXTT2=
EXTT3=
EXTT4=
EXTT5=
EXTT6=
EXTT7=
EXTT8=
EXTT9=
PLAYORDER=
